<?xml version="1.0" encoding="UTF-8" standalone="no" ?>
<!DOCTYPE svg PUBLIC "-//W3C//DTD SVG 1.1//EN" "http://www.w3.org/Graphics/SVG/1.1/DTD/svg11.dtd">
<svg xmlns="http://www.w3.org/2000/svg" xmlns:xlink="http://www.w3.org/1999/xlink" version="1.1" width="1280" height="1024" viewBox="0 0 1280 1024" xml:space="preserve">
<desc>Created with Fabric.js 5.3.0</desc>
<defs>
</defs>
<g transform="matrix(1 0 0 1 640 512)" id="background-logo"  >
<rect style="stroke: none; stroke-width: 0; stroke-dasharray: none; stroke-linecap: butt; stroke-dashoffset: 0; stroke-linejoin: miter; stroke-miterlimit: 4; fill: rgb(255,255,255); fill-opacity: 0; fill-rule: nonzero; opacity: 1;"  paint-order="stroke"  x="-640" y="-512" rx="0" ry="0" width="1280" height="1024" />
</g>
<g transform="matrix(2.0529742532383373 0 0 2.0529742532383373 385.78988581689737 402.35658552631594)" id="shape-4bad4a36-7fc4-4bb7-8e71-c5264152aeb1"  >
<g style=""  paint-order="stroke"   >
		<g transform="matrix(1 0 0 1 2.0680098275877583 36.382785691947326)" id="path-24_00000113335994203536438860000016820979631242365096_"  >
<linearGradient id="SVGID_113_10_9_279296" gradientUnits="userSpaceOnUse" gradientTransform="matrix(1 0 0 1 4.136015233644727 112.2397215821751)"  x1="0" y1="0" x2="0" y2="98">
<stop offset="0%" style="stop-color:rgb(91,36,122);stop-opacity: 1"/>
<stop offset="100%" style="stop-color:rgb(27,206,223);stop-opacity: 1"/>
</linearGradient>
<path style="stroke: none; stroke-width: 1; stroke-dasharray: none; stroke-linecap: butt; stroke-dashoffset: 0; stroke-linejoin: miter; stroke-miterlimit: 4; fill: url(#SVGID_113_10_9_279296); fill-rule: nonzero; opacity: 1;"  paint-order="stroke"  transform=" translate(-117.41564817293978, -161.38278388917547)" d="M 44.08038 131.65797 L 65.47053 175.16801 C 39.57735 204.21509 19.6988 217.45757 8.85979 206.9458 C 6.70008 204.85136 5.37768 202.05489 4.728260000000001 199.11612 C 0.249 178.84381 21.93933 155.27924 44.08038 131.65797 z M 229.73792 120.63918 C 224.18534 106.87393999999999 201.05698 110.84263999999999 166.23462 126.61035 L 168.13028 174.22586 C 197.4223 161.83598 226.28691 149.31735 230.33264 129.32025000000002 C 230.9191 126.42134 230.84427 123.38188 229.73792 120.63918 z" stroke-linecap="round" />
</g>
		<g transform="matrix(1 0 0 1 1.2301615483864623 36.07339023822464)" id="path-23_00000120549276550073877000000006902454631182094979_"  >
<path style="stroke: none; stroke-width: 1; stroke-dasharray: none; stroke-linecap: butt; stroke-dashoffset: 0; stroke-linejoin: miter; stroke-miterlimit: 4; fill: rgb(147,170,207); fill-rule: nonzero; opacity: 1;"  paint-order="stroke"  transform=" translate(-116.57779989373849, -161.07338843545278)" d="M 45.24758 175.71118 L 47.78519 180.87605000000002 C 30.83281 199.90236000000002 17.81429 208.5704 10.710709999999999 201.68693000000002 C 9.295639999999999 200.31782 8.43722 198.48599000000002 8.003219999999999 196.55972000000003 C 7.871159999999999 195.96489000000003 7.776809999999999 195.37005000000002 7.710779999999999 194.76573000000002 C 8.01263 195.18120000000002 8.34288 195.56834 8.710759999999999 195.92714 C 15.73891 202.73509 28.55932 194.32191 45.24758 175.71118 z M 224.73029 122.37351 C 223.99083 120.52865 222.82276 119.11272 221.25812 118.11509 C 221.71894 119.84212 221.69747999999998 121.68706999999999 221.34375 123.45694999999999 C 218.97565 135.13909999999998 205.22550999999999 143.39386 188.87286 150.85938 L 188.90434 157.94013999999999 C 206.88210999999998 150.01268 222.63378999999998 141.41241 225.18036999999998 128.83093 C 225.6091 126.67488 225.55547 124.41164 224.73029 122.37351 z" stroke-linecap="round" />
</g>
		<g transform="matrix(1 0 0 1 -9.08444735454659 92.71049002366755)" id="path-22_00000069370526448176322050000018430658475343179151_"  >
<path style="stroke: none; stroke-width: 1; stroke-dasharray: none; stroke-linecap: butt; stroke-dashoffset: 0; stroke-linejoin: miter; stroke-miterlimit: 4; fill: rgb(147,170,207); fill-rule: nonzero; opacity: 1;"  paint-order="stroke"  transform=" translate(-106.26319099080544, -217.71048822089568)" d="M 166.29457 195.90555 C 166.29457 195.90555 161.67177999999998 251.17015 104.97823 249.98108000000002 C 104.44574999999999 249.96991000000003 103.91292 249.95020000000002 103.37957 249.93137000000002 C 73.55727 248.87995 49.28537 225.50702 46.26601 195.79224000000002 C 43.88825 172.39099 166.29457 195.90555 166.29457 195.90555 z" stroke-linecap="round" />
</g>
		<g transform="matrix(1 0 0 1 -8.85966134160968 54.79993728731559)" id="path-21_00000166654176099053547830000018200123787256869545_"  >
<linearGradient id="SVGID_113_10_9_279297" gradientUnits="userSpaceOnUse" gradientTransform="matrix(1 0 0 1 43.098334659499926 116.61973999999998)"  x1="0" y1="0" x2="0" y2="126">
<stop offset="0%" style="stop-color:rgb(91,36,122);stop-opacity: 1"/>
<stop offset="100%" style="stop-color:rgb(27,206,223);stop-opacity: 1"/>
</linearGradient>
<path style="stroke: none; stroke-width: 1; stroke-dasharray: none; stroke-linecap: butt; stroke-dashoffset: 0; stroke-linejoin: miter; stroke-miterlimit: 4; fill: url(#SVGID_113_10_9_279297); fill-rule: nonzero; opacity: 1;"  paint-order="stroke"  transform=" translate(-106.48797700374234, -179.79993548454374)" d="M 167.62067 188.61313 C 167.08765 193.60208 165.92079999999999 198.40349 164.22093999999998 202.94547 C 164.13522999999998 203.16985 158.50336 203.46105 158.41765999999998 203.68075 C 158.31607999999997 203.94110999999998 163.76065999999997 204.1293 163.6591 204.38736999999998 C 154.29538 227.54404999999997 130.8285 243.66431999999998 104.98465999999999 242.95779 L 103.38564999999998 242.91449999999998 C 78.16123999999999 242.02052999999998 57.042419999999986 227.32768999999996 48.81682999999998 204.38732 C 48.72859999999998 204.16314 53.05196999999998 203.75876 52.97350999999998 203.53309 C 52.88543999999998 203.27975999999998 48.396419999999985 203.20474 48.31257999999998 202.94544 C 47.05928999999998 199.18213 46.151729999999986 195.18809 45.63313999999998 191.02102 C 42.67998999999998 167.67687 42.924869999999984 141.31924999999998 43.35702999999998 116.61974 L 169.40697 116.61977999999999 C 170.1561 139.96391 170.30011 163.8271 167.62067 188.61313 z" stroke-linecap="round" />
</g>
		<g transform="matrix(1 0 0 1 -8.904318345352017 34.84212680277187)" id="path-20_00000023994190225972654170000009821904921990862745_"  >
<path style="stroke: none; stroke-width: 1; stroke-dasharray: none; stroke-linecap: butt; stroke-dashoffset: 0; stroke-linejoin: miter; stroke-miterlimit: 4; fill: rgb(113,140,176); fill-rule: nonzero; opacity: 1;"  paint-order="stroke"  transform=" translate(-106.44332, -159.842125)" d="M 141.50945 130.16824 L 141.50942999999998 179.00148000000002 C 141.50942999999998 184.80853000000002 136.80621 189.51605 131.00446 189.51605 L 81.88217 189.51603 C 76.0804 189.51603 71.37719 184.80851 71.37719 179.00144 L 71.37721 130.1682 L 141.50945 130.16824 z" stroke-linecap="round" />
</g>
		<g transform="matrix(1 0 0 1 -8.904323345352047 30.572876802779838)" id="path-19_00000176723833193226215030000013897421668986714770_"  >
<path style="stroke: none; stroke-width: 1; stroke-dasharray: none; stroke-linecap: butt; stroke-dashoffset: 0; stroke-linejoin: miter; stroke-miterlimit: 4; fill: rgb(138,161,191); fill-rule: nonzero; opacity: 1;"  paint-order="stroke"  transform=" translate(-106.44331499999998, -155.57287500000797)" d="M 138.3524 125.89899 L 138.35237999999998 174.73223000000002 C 138.35237999999998 180.53928000000002 133.64915 185.2468 127.84738999999999 185.24679 L 85.03921 185.24677 C 79.23743999999999 185.24677 74.53423 180.53927 74.53423 174.7322 L 74.53425 125.89896 L 138.3524 125.89899 z" stroke-linecap="round" />
</g>
		<g transform="matrix(1 0 0 1 -9.080888345352008 78.6663968027719)" id="path-18_00000022523617370908718240000008145806500766875801_"  >
<path style="stroke: none; stroke-width: 1; stroke-dasharray: none; stroke-linecap: butt; stroke-dashoffset: 0; stroke-linejoin: miter; stroke-miterlimit: 4; fill: rgb(138,161,191); fill-rule: nonzero; opacity: 1;"  paint-order="stroke"  transform=" translate(-106.26675000000002, -203.66639500000002)" d="M 164.22093 202.94547 C 164.03364000000002 203.43575 163.84636 203.91152 163.65909000000002 204.38736 L 48.81682000000002 204.38731 C 48.62954000000002 203.91146 48.47110000000002 203.43571 48.31257000000002 202.94543000000002 L 164.22093 202.94547 z" stroke-linecap="round" />
</g>
		<g transform="matrix(1 0 0 1 -8.73613334535203 80.0243768027719)" id="path-17_00000143581349089806710560000005693171140860527031_"  >
<path style="stroke: none; stroke-width: 1; stroke-dasharray: none; stroke-linecap: butt; stroke-dashoffset: 0; stroke-linejoin: miter; stroke-miterlimit: 4; fill: rgb(94,112,140); fill-rule: nonzero; opacity: 1;"  paint-order="stroke"  transform=" translate(-106.611505, -205.02437500000002)" d="M 144.79626 195.46111 C 144.79626 193.99008999999998 145.98756 192.7977 147.45723999999998 192.7977 C 148.92681 192.7977 150.11819999999997 193.99009999999998 150.11819999999997 195.46111 C 150.11819999999997 196.93204 148.92680999999996 198.12442 147.45721999999998 198.12442 C 145.98756 198.12442 144.79626 196.93204 144.79626 195.46111 z M 65.76569 192.79767 C 64.29610000000001 192.79767 63.104800000000004 193.99007 63.104800000000004 195.46108 C 63.104800000000004 196.93201000000002 64.29610000000001 198.12439 65.76569 198.12439 C 67.23536 198.12439 68.42666000000001 196.93201 68.42667 195.46108 C 68.42667 193.99007 67.23536 192.79767 65.76569 192.79767 z M 147.45723 211.92426 C 145.98756 211.92426 144.79625000000001 213.11673 144.79625000000001 214.58767 C 144.79625000000001 216.05868 145.98756 217.25108 147.45723 217.25108 C 148.92682000000002 217.25108 150.11821 216.05868 150.11821 214.58767 C 150.11821 213.11673 148.92682 211.92426 147.45723 211.92426 z M 65.76568 211.92422 C 64.29610000000001 211.92422 63.104800000000004 213.11668999999998 63.104800000000004 214.58763 C 63.104800000000004 216.05864 64.29610000000001 217.25104 65.76568 217.25104 C 67.23535 217.25104 68.42666 216.05864 68.42666 214.58763 C 68.42666 213.1167 67.23536 211.92422 65.76568 211.92422 z" stroke-linecap="round" />
</g>
		<g transform="matrix(1 0 0 1 -8.907988345352024 78.66639680277181)" id="path-16_00000072958992150697695510000015060944983780844187_"  >
<path style="stroke: none; stroke-width: 1; stroke-dasharray: none; stroke-linecap: butt; stroke-dashoffset: 0; stroke-linejoin: miter; stroke-miterlimit: 4; fill: rgb(80,96,120); fill-rule: nonzero; opacity: 1;"  paint-order="stroke"  transform=" translate(-106.43965, -203.66639499999997)" d="M 139.9185 200.78264 L 139.9185 206.55016999999998 C 139.9185 207.99205999999998 138.75164999999998 209.15999 137.31108 209.15999 L 75.58256 209.15997 C 74.12766 209.15997 72.9608 207.99203 72.9608 206.55014999999997 L 72.9608 200.78259999999997 C 72.9608 199.38392999999996 74.05556 198.24486999999996 75.43855 198.18722999999997 C 75.48181000000001 198.17279999999997 75.5394 198.17279999999997 75.58257 198.17279999999997 L 78.96619 203.49388999999996 L 133.63794000000001 202.32712999999995 L 137.31108 198.17281999999994 C 137.35425 198.17281999999994 137.39751 198.17281999999994 137.44067 198.18724999999995 C 138.82365 198.2449 139.9185 199.38396 139.9185 200.78264 z" stroke-linecap="round" />
</g>
		<g transform="matrix(1 0 0 1 -8.908033345351988 77.47682680277188)" id="path-15_00000183239994686297147720000007447319177684046522_"  >
<path style="stroke: none; stroke-width: 1; stroke-dasharray: none; stroke-linecap: butt; stroke-dashoffset: 0; stroke-linejoin: miter; stroke-miterlimit: 4; fill: rgb(94,112,140); fill-rule: nonzero; opacity: 1;"  paint-order="stroke"  transform=" translate(-106.43960500000003, -202.47682500000002)" d="M 137.46951 198.40349 L 137.46951 204.15669 C 137.46951 205.59857 136.30266 206.78084 134.86209000000002 206.78084 L 78.03155000000002 206.78082 C 76.59098000000003 206.78082 75.40970000000003 205.59855000000002 75.40970000000003 204.15666000000002 L 75.40971000000003 198.40347000000003 C 75.40971000000003 198.33139000000003 75.40971000000003 198.25930000000002 75.43855000000003 198.18724000000003 C 75.48181000000004 198.17281000000003 75.53940000000003 198.17281000000003 75.58257000000003 198.17281000000003 L 137.31109000000004 198.17283000000003 C 137.35426000000004 198.17283000000003 137.39752000000004 198.17283000000003 137.44068000000004 198.18726000000004 C 137.46951 198.25934 137.46951 198.33141 137.46951 198.40349 z" stroke-linecap="round" />
</g>
		<g transform="matrix(1 0 0 1 -8.90430274078956 -42.931608197228144)" id="path-14_00000047026673349004133320000008974876166022393229_"  >
<path style="stroke: none; stroke-width: 1; stroke-dasharray: none; stroke-linecap: butt; stroke-dashoffset: 0; stroke-linejoin: miter; stroke-miterlimit: 4; fill: rgb(64,52,120); fill-rule: nonzero; opacity: 1;"  paint-order="stroke"  transform=" translate(-106.44333560456246, -82.06839)" d="M 208.10771 107.90607 C 207.57208 109.53479 206.18576 110.63627 204.61409 110.63627 L 184.13536 110.63626 L 184.13538 53.50055999999999 L 204.82741 53.500569999999996 C 206.30789 53.500569999999996 207.63029999999998 54.48235999999999 208.23319999999998 55.972919999999995 C 214.72394 72.02068 214.18478 89.42795 208.10771 107.90607 z M 4.65356 55.97285 C -1.8372800000000007 72.02061 -1.29812 89.42788 4.77893 107.90601000000001 C 5.31457 109.53473000000001 6.700889999999999 110.63621 8.27256 110.63621 L 28.75128 110.63622000000001 L 28.7513 53.50052000000001 L 8.05927 53.50051 C 6.57878 53.50051 5.25638 54.4823 4.65356 55.97285 z" stroke-linecap="round" />
</g>
		<g transform="matrix(1 0 0 1 -8.904265192039801 -44.876183197234454)" id="path-13_00000070833653130382231700000007267345953636818315_"  >
<linearGradient id="SVGID_115_14_12_279299" gradientUnits="userSpaceOnUse" gradientTransform="matrix(1 0 0 1 5.739050156216223 59.980639999987375)"  x1="0" y1="0" x2="0" y2="40">
<stop offset="0%" style="stop-color:rgb(23,234,217);stop-opacity: 1"/>
<stop offset="100%" style="stop-color:rgb(96,120,234);stop-opacity: 1"/>
</linearGradient>
<path style="stroke: none; stroke-width: 1; stroke-dasharray: none; stroke-linecap: butt; stroke-dashoffset: 0; stroke-linejoin: miter; stroke-miterlimit: 4; fill: url(#SVGID_115_14_12_279299); fill-rule: nonzero; opacity: 1;"  paint-order="stroke"  transform=" translate(-106.44337315331222, -80.12381499999368)" d="M 207.14195 79.93485 C 206.89329 96.11039 201.46469000000002 100.26698999999999 197.97853 100.26698999999999 L 197.97855 59.98069999999999 C 201.46469 59.9807 207.35738 65.91563 207.14195 79.93485 z M 5.7448 79.93479 C 5.99336 96.11033 11.42197 100.26693 14.90812 100.26693 L 14.90813 59.98064 C 11.42198 59.98063 5.5293 65.91557 5.7448 79.93479 z" stroke-linecap="round" />
</g>
		<g transform="matrix(1 0 0 1 -7.3552605065147105 -8.725877285867753)" id="path-12_00000129192446646730781570000018318069569386919351_"  >
<path style="stroke: none; stroke-width: 1; stroke-dasharray: none; stroke-linecap: butt; stroke-dashoffset: 0; stroke-linejoin: miter; stroke-miterlimit: 4; fill: rgb(147,170,207); fill-rule: nonzero; opacity: 0.35;"  paint-order="stroke"  transform=" translate(-107.99237783883731, -116.27412091136038)" d="M 173.41295 121.35729 C 170.61647 143.58287 141.54372999999998 160.84810000000002 106.35024 160.22491000000002 C 105.75358 160.21435000000002 105.15648 160.20211000000003 104.55884999999999 160.18830000000003 C 71.15763999999999 159.41392000000002 44.66181999999999 142.39352000000002 42.21820999999999 121.27786000000003 C 40.33977999999999 105.04635000000003 40.030199999999994 88.71670000000003 41.23740999999999 72.30698000000004 L 174.62825999999998 72.30703000000004 C 176.10927 87.80212 175.57442 104.17822 173.41295 121.35729 z" stroke-linecap="round" />
</g>
		<g transform="matrix(1 0 0 1 -8.950849843516828 -114.71212819722814)" id="path-11_00000054961841525031565910000011257866304983631501_"  >
<path style="stroke: none; stroke-width: 1; stroke-dasharray: none; stroke-linecap: butt; stroke-dashoffset: 0; stroke-linejoin: miter; stroke-miterlimit: 4; fill: rgb(12,92,108); fill-rule: nonzero; opacity: 1;"  paint-order="stroke"  transform=" translate(-106.3967885018352, -10.287870000000002)" d="M 125.84706 7.1599 L 97.85973 12.470880000000001 L 82.94399 20.575740000000003 L 82.94399 5.75311 C 82.944 2.58094 85.50817 0 88.67744 0 L 124.2163 0.00001 C 127.01101 0.00001 129.33031 2.00425 129.84898 4.657279999999999 C 129.90657 5.00332 125.84706 6.785 125.84706 7.1599 z" stroke-linecap="round" />
</g>
		<g transform="matrix(1 0 0 1 -7.777083345352047 -112.93859319722813)" id="path-10_00000089539614349220659890000002735112021893819540_"  >
<path style="stroke: none; stroke-width: 1; stroke-dasharray: none; stroke-linecap: butt; stroke-dashoffset: 0; stroke-linejoin: miter; stroke-miterlimit: 4; fill: rgb(64,52,120); fill-rule: nonzero; opacity: 1;"  paint-order="stroke"  transform=" translate(-107.57055499999998, -12.061405)" d="M 129.94983 5.75312 L 129.94983 20.57575 L 85.19127999999999 20.57573 L 85.19129 9.28574 C 85.19129 6.128010000000001 87.75546 3.547060000000001 90.92473 3.547060000000001 L 126.46359 3.547070000000001 C 127.73129999999999 3.547070000000001 128.89815 3.965190000000001 129.84899 4.657260000000001 C 129.90657 5.00332 129.94983 5.37822 129.94983 5.75312 z" stroke-linecap="round" />
</g>
		<g transform="matrix(1 0 0 1 -8.943615973360139 -51.168428135377134)" id="path-09_00000111153742147381760740000016976798624355957147_"  >
<path style="stroke: none; stroke-width: 1; stroke-dasharray: none; stroke-linecap: butt; stroke-dashoffset: 0; stroke-linejoin: miter; stroke-miterlimit: 4; fill: rgb(4,92,100); fill-rule: nonzero; opacity: 1;"  paint-order="stroke"  transform=" translate(-106.40402237199189, -73.83157006185101)" d="M 191.1972 77.72701 L 178.26527000000002 76.82458000000001 C 178.23651 81.12146000000001 177.5634 85.17678000000001 177.16008000000002 89.54573 C 174.55264000000003 117.59043 165.99779 125.8451 137.37364000000002 128.81537 C 129.62337000000002 129.62282 121.28532000000003 127.70918 113.05972000000003 127.70918 C 100.94447000000002 127.70918 89.31826000000002 136.09092 76.03624000000002 134.34629 C 48.65097000000002 130.72713000000002 32.75918000000002 119.2626 29.61875000000002 92.58771000000002 C 29.05691000000002 87.82950000000001 28.86188000000002 85.61557000000002 28.78987000000002 80.97274000000002 C 28.775450000000017 80.84293000000001 21.604450000000018 80.21210000000002 21.604450000000018 80.06786000000001 C 21.561190000000018 76.91021 21.633290000000017 73.78126 21.820570000000018 70.71003000000002 C 23.57803000000002 42.47797000000001 44.740020000000015 19.782620000000016 73.30657000000002 15.514700000000019 C 84.12527000000003 13.899800000000019 95.17442000000003 13.077920000000018 106.15157000000002 13.077920000000018 C 117.01344000000002 13.077920000000018 128.10585000000003 13.88538000000002 139.11183000000003 15.471420000000018 C 167.57753000000002 19.58086000000002 189.41653000000002 42.93935000000002 191.05881000000002 71.01291000000002 C 191.24608 74.24273 191.22604 74.42512 191.1972 77.72701 z" stroke-linecap="round" />
</g>
		<g transform="matrix(1 0 0 1 -8.903992789796462 -42.35832319722813)" id="path-08_00000037681057987226366290000018028629979462734730_"  >
<linearGradient id="SVGID_113_10_9_279298" gradientUnits="userSpaceOnUse" gradientTransform="matrix(1 0 0 1 21.598031111111126 16.624920000000017)"  x1="0" y1="0" x2="0" y2="132">
<stop offset="0%" style="stop-color:rgb(91,36,122);stop-opacity: 1"/>
<stop offset="100%" style="stop-color:rgb(27,206,223);stop-opacity: 1"/>
</linearGradient>
<path style="stroke: none; stroke-width: 1; stroke-dasharray: none; stroke-linecap: butt; stroke-dashoffset: 0; stroke-linejoin: miter; stroke-miterlimit: 4; fill: url(#SVGID_113_10_9_279298); fill-rule: nonzero; opacity: 1;"  paint-order="stroke"  transform=" translate(-106.44364555555556, -82.641675)" d="M 191.28926 80.81773 L 191.28926 80.90424 C 191.2605 85.20112 191.02995 89.54112 190.62665 93.91008 C 188.01921000000002 121.95478 165.35897 144.47702999999998 136.73483000000002 147.44729 C 128.98454 148.25474 120.87413000000002 148.65843 112.64852000000002 148.65843 C 100.53327000000002 148.65841 87.65456000000002 147.76446 74.37254000000001 146.01982 C 46.98728000000001 142.40066000000002 25.681270000000012 121.26256000000001 22.540840000000017 94.58768 C 21.979000000000017 89.82947 21.676450000000017 85.11447000000001 21.604440000000018 80.47164000000001 C 21.590020000000017 80.34183 21.604440000000018 80.21211000000001 21.604440000000018 80.06787000000001 C 21.633280000000017 78.12136000000001 21.70529000000002 76.18928000000001 21.820560000000018 74.27155000000002 C 23.578020000000016 46.02496000000002 44.740020000000015 23.329700000000017 73.30656000000002 19.061700000000016 C 84.12526000000003 17.446800000000017 95.17441000000002 16.624920000000017 106.15155000000001 16.624920000000017 C 117.01343000000001 16.624920000000017 128.10583000000003 17.432470000000016 139.11182000000002 19.018510000000017 C 167.57752000000002 23.127860000000016 189.41652000000002 46.486440000000016 191.05880000000002 74.57435000000002 C 191.17407 76.63631 191.2605 78.72697 191.28926 80.81773 z" stroke-linecap="round" />
</g>
		<g transform="matrix(1 0 0 1 -8.825907042423566 -44.53349819727781)" id="path-07_00000101089814724180208320000014164032258303239096_"  >
<path style="stroke: none; stroke-width: 1; stroke-dasharray: none; stroke-linecap: butt; stroke-dashoffset: 0; stroke-linejoin: miter; stroke-miterlimit: 4; fill: rgb(83,113,255); fill-rule: nonzero; opacity: 1;"  paint-order="stroke"  transform=" translate(-106.52173130292846, -80.46649999995033)" d="M 180.5351 92.25459 C 178.31778 115.24864 159.31806 133.70123 135.35441 136.13044 C 128.02644 136.87321 120.36109 137.25039999999998 112.56976 137.25039999999998 C 101.03006 137.25037999999998 88.74099000000001 136.42111999999997 76.04490000000001 134.78744999999998 C 53.14375000000001 131.83854999999997 35.33260000000001 114.54550999999998 32.73186000000001 92.73371999999998 C 31.857790000000012 85.40345999999998 31.64299000000001 78.16128999999998 32.09168000000001 71.20821999999998 C 33.58897000000001 48.03586999999998 51.35537000000001 29.415889999999983 75.29633000000001 25.926909999999985 C 85.51397000000001 24.437769999999986 95.94501000000001 23.682589999999983 106.30061 23.682599999999987 C 116.5776 23.682599999999987 127.06588 24.42607999999999 137.47644 25.892429999999987 C 161.32718 29.25152999999999 179.61409 48.41090999999999 180.96031 71.44904999999999 C 181.35773 78.20905 181.21405 85.20903 180.5351 92.25459 z" stroke-linecap="round" />
</g>
		<g transform="matrix(1 0 0 1 -8.82589111658011 -44.53347319728137)" id="path-06_00000141418467965423991430000010399765880390614696_"  >
<path style="stroke: none; stroke-width: 1; stroke-dasharray: none; stroke-linecap: butt; stroke-dashoffset: 0; stroke-linejoin: miter; stroke-miterlimit: 4; fill: rgb(105,226,251); fill-rule: nonzero; opacity: 1;"  paint-order="stroke"  transform=" translate(-106.52174722877191, -80.46652499994677)" d="M 175.54128 91.4592 C 173.47353 112.9018 155.75583 130.10938 133.40897 132.37473 C 126.57540000000002 133.06733 119.42732000000001 133.41909 112.16169000000001 133.41909 C 101.40058 133.41907 89.94064 132.64577 78.10130000000001 131.12229000000002 C 56.74526000000001 128.37238000000002 40.13588000000001 112.24611000000002 37.71055000000001 91.90605000000002 C 36.89557000000001 85.07038000000003 36.69519000000001 78.31682000000002 37.113630000000015 71.83291000000003 C 38.50989000000001 50.224070000000026 55.077520000000014 32.860370000000025 77.40320000000001 29.606810000000024 C 86.93142000000002 28.218170000000026 96.65870000000001 27.513950000000023 106.31547 27.513960000000026 C 115.89917 27.513960000000026 125.67974000000001 28.207280000000026 135.38784 29.574710000000024 C 157.62939 32.707100000000025 174.68244 50.573770000000025 175.93783000000002 72.05747000000002 C 176.30843 78.36139 176.17442 84.88904 175.54128 91.4592 z" stroke-linecap="round" />
</g>
		<g transform="matrix(1 0 0 1 -8.82633578764056 -44.53351167476804)" id="path-05_00000118361832250179712680000016532843474499561601_"  >
<path style="stroke: none; stroke-width: 1; stroke-dasharray: none; stroke-linecap: butt; stroke-dashoffset: 0; stroke-linejoin: miter; stroke-miterlimit: 4; fill: rgb(64,52,120); fill-rule: nonzero; opacity: 1;"  paint-order="stroke"  transform=" translate(-106.52130255771146, -80.46648652246009)" d="M 169.29443 90.62948 C 167.45106 109.75541 151.75294 124.99228 131.73855 127.02098000000001 C 115.07571 128.70998 97.75157 128.13670000000002 79.9239 125.84160000000001 C 61.0427 123.41078000000002 46.09326 109.05854000000002 43.939530000000005 90.99395000000001 C 43.188300000000005 84.69204 42.99539000000001 78.51051000000001 43.386660000000006 72.45493000000002 C 44.618500000000004 53.39192000000002 59.52082000000001 37.77495000000002 79.30581000000001 34.89172000000002 C 97.07361 32.30242000000002 115.13992000000002 32.27559000000002 133.5109 34.86322000000002 C 153.46953 37.67440000000002 168.53994999999998 53.42910000000002 169.66398999999998 72.65157000000002 C 170.0119 78.60076 169.87614 84.59457 169.29443 90.62948 z" stroke-linecap="round" />
</g>
		<g transform="matrix(1 0 0 1 -7.986758345352044 -51.045263197228145)" id="path-04_00000054262483580613255270000005522004265069763228_"  >
<path style="stroke: none; stroke-width: 1; stroke-dasharray: none; stroke-linecap: butt; stroke-dashoffset: 0; stroke-linejoin: miter; stroke-miterlimit: 4; fill: rgb(105,226,251); fill-rule: nonzero; opacity: 1;"  paint-order="stroke"  transform=" translate(-107.36087999999998, -73.954735)" d="M 155.64708 82.02348 C 155.64708 82.20117 155.64708 82.37867 155.6353 82.55636000000001 C 143.65018 75.70784000000002 132.79297 75.70783000000002 123.06358 82.55635000000001 C 123.05171 82.37867000000001 123.05171 82.20116000000002 123.05171 82.02347 C 123.05172 73.02348 130.33986 65.7168 139.34351 65.71681000000001 C 148.34717 65.7168 155.64708 73.02348 155.64708 82.02348 z M 75.83433 65.29312 C 66.57208 65.29312 59.074679999999994 72.80968 59.074679999999994 82.06815 C 59.074679999999994 82.25094 59.074679999999994 82.43364 59.08680999999999 82.61634000000001 C 69.09572 75.57114000000001 80.26472 75.57114000000001 92.59406999999999 82.61635000000001 C 92.60619999999999 82.43366000000002 92.60619999999999 82.25096 92.60619999999999 82.06816 C 92.60619 72.8097 85.09657 65.29312 75.83433 65.29312 z" stroke-linecap="round" />
</g>
		<g transform="matrix(1 0 0 1 -9.115928013094234 -53.8000052531317)" id="path-03_00000027597529613683908580000017209068538786652545_"  >
<path style="stroke: none; stroke-width: 1; stroke-dasharray: none; stroke-linecap: butt; stroke-dashoffset: 0; stroke-linejoin: miter; stroke-miterlimit: 4; fill: rgb(16,79,166); fill-rule: nonzero; opacity: 1;"  paint-order="stroke"  transform=" translate(-106.23171033225779, -71.19999294409644)" d="M 164.76109 64.77348 C 158.65828 55.188770000000005 147.11674 46.29315000000001 134.67854 44.947540000000004 C 117.86807 43.13514000000001 101.57284 42.889250000000004 85.92334 44.71061 C 67.13596 46.904320000000006 51.796389999999995 60.93498 50.30965 80.70327 C 49.89165 86.26162000000001 49.82394 91.75301 50.244139999999994 97.21341000000001 C 50.453399999999995 99.89723000000001 52.643269999999994 102.69520000000001 53.43214 105.19685000000001 C 50.366879999999995 100.39156000000001 48.454679999999996 94.86453000000002 48.00011 88.98108000000002 C 47.58018 83.53397000000002 47.60647 78.02622000000002 48.065799999999996 72.48431000000002 C 49.49502999999999 54.89144000000002 64.00704999999999 40.64525000000002 82.80815 38.46457000000002 C 98.45739 36.62992000000003 114.75279 36.87590000000002 131.56318 38.68829000000002 C 147.396 40.39852 160.45284 50.82853 164.76109 64.77348 z" stroke-linecap="round" />
</g>
		<g transform="matrix(1 0 0 1 -5.9796067940555915 -33.22679119547415)" id="path-02_00000065773717560706113690000008021710028544792201_"  >
<path style="stroke: none; stroke-width: 1; stroke-dasharray: none; stroke-linecap: butt; stroke-dashoffset: 0; stroke-linejoin: miter; stroke-miterlimit: 4; fill: rgb(8,89,108); fill-rule: nonzero; opacity: 1;"  paint-order="stroke"  transform=" translate(-109.36803155129644, -91.77320700175399)" d="M 167.9308 89.1882 C 166.59221 104.86097 148.7698 120.40189 131.31142 122.35685 C 116.77971 124.00131999999999 101.64949 123.79301 86.04211000000001 122.18954 C 71.34238 120.67644999999999 54.45313000000001 111.55113 50.46202000000001 99.13175999999999 C 56.12231000000001 107.66575999999999 70.85255000000001 113.49113999999999 82.40059000000001 114.68167999999999 C 98.00807 116.28514999999999 113.13819000000001 116.49345999999998 127.67008000000001 114.86078999999998 C 145.11573 112.89430999999998 162.95080000000002 97.35320999999998 164.28946000000002 81.69222999999998 C 164.7195 76.74339999999998 164.74764000000002 71.84869999999998 164.36112000000003 66.98488999999998 C 164.16866000000002 64.59429999999998 163.70044000000001 62.27912999999998 162.96961000000002 60.05117999999998 C 165.8126 64.32974999999998 167.58446 69.25208999999998 168.00265000000002 74.49274999999999 C 168.38898 79.34476 168.36093 84.25117 167.9308 89.1882 z" stroke-linecap="round" />
</g>
		<g transform="matrix(1 0 0 1 -1.1715114174803887 28.499603247315747)" id="path-01_00000093159283340042858670000011251598221217876913_"  >
<path style="stroke: none; stroke-width: 1; stroke-dasharray: none; stroke-linecap: butt; stroke-dashoffset: 0; stroke-linejoin: miter; stroke-miterlimit: 4; fill: rgb(4,92,100); fill-rule: nonzero; opacity: 1;"  paint-order="stroke"  transform=" translate(-114.17612692787164, -153.49960144454388)" d="M 42.91844 142.22676 C 36.896159999999995 150.13222000000002 30.28926 157.51027000000002 24.262319999999995 165.35994000000002 C 18.397599999999997 173.14923000000002 12.191379999999995 181.07925000000003 10.468129999999995 190.94627000000003 C 9.48337 173.36098 30.30562 152.90704 42.91844 142.22676 z M 183.49588 126.09297 C 194.76195 122.17329 205.92093 117.93476 217.91783 117.15996 C 207.01041 113.67854 191.97313 118.88909 183.49588 126.09297 z" stroke-linecap="round" />
</g>
</g>
</g>
<g transform="matrix(2.071889386163774 0 0 2.071889386163774 848.2825149542946 471.8841276018583)" id="logo-logo"  >
<g style=""  paint-order="stroke"   >
		<g transform="matrix(1.1109897667269326 0 0 1.1109897667269326 4.07411021094191 3.1690134413613578)"  >
<path style="stroke: none; stroke-width: 1; stroke-dasharray: none; stroke-linecap: butt; stroke-dashoffset: 0; stroke-linejoin: miter; stroke-miterlimit: 4; fill: rgb(8,89,108); fill-rule: nonzero; opacity: 1;"  paint-order="stroke"  transform=" translate(-301.3170939329677, -423.80243624910196)" d="M 420.3304443 439.3877869 C 419.5718994 453.1424866 409.0431823 461.9150696 407.4859008 456.6492005 C 402.3805846 439.3424683 390.5805053 426.0132142 377.1750182 424.2512208 C 375.9026793 424.0826417 374.65048210000003 424.0264588 373.4222716 424.0706178 C 370.58862289999996 424.1268007 367.9597472 424.6405641 365.4993895 425.5355836 C 360.45022570000003 430.0027467 354.8391722 434.8953553 349.6977538 438.1142884 C 344.604431 444.5119935 340.105194 452.3586426 335.42532339999997 460.02865610000003 C 324.73699939999995 477.54412850000006 313.0975036 494.13641370000005 291.19515979999994 490.4479066 C 287.72738639999994 489.86193860000003 284.4763487999999 488.9548341 281.42602529999994 487.7628175 C 272.06622309999995 484.11441049999996 264.5487059999999 477.8170472 258.2192076999999 470.05468759999997 C 248.2774657999999 457.86529549999995 241.2696837999999 442.0757447 234.6472014999999 427.28952039999996 L 234.6472014999999 427.2855226 C 232.9775694999999 423.5568849 231.33596799999992 419.88842789999995 229.6743163999999 416.3604433 C 221.3821563999999 398.736603 212.68869019999988 384.55651869999997 198.5245971999999 383.04736349999996 C 194.5952453999999 382.52963279999994 190.9187927999999 383.35241719999993 187.6878051999999 385.25085469999993 L 187.6837920999999 385.25085469999993 C 181.07737729999988 389.1360475999999 180.11811829999988 377.9380494999999 185.0067290999999 367.5507814999999 C 188.23590089999988 361.93762229999993 197.00743099999988 358.8291627999999 204.52494809999988 359.82055689999993 C 204.71362299999987 359.8486330999999 204.90225219999988 359.8727113999999 205.08691399999987 359.9048158999999 C 205.26750179999988 359.9329225999999 205.44808949999987 359.9609987999999 205.62869259999985 359.9931337999999 C 205.63270569999986 359.9971315999999 205.63671869999985 359.9971315999999 205.64074699999986 359.9971315999999 C 205.82133479999987 360.02926659999986 206.00198359999987 360.0613405999999 206.18261709999987 360.10150169999986 C 223.66192619999987 363.46890279999985 233.04176319999988 381.17303489999983 242.5339964999999 398.4757387999999 C 243.50932299999988 400.2537844999999 244.4846037999999 402.02780179999985 245.4759520999999 403.78173859999987 C 253.2303008999999 417.5725710999999 261.6067503999999 430.10711699999985 274.9359740999999 433.59896879999985 C 275.0363158999999 433.6270754999999 275.1366576999999 433.6511538999998 275.2369994999999 433.67523219999987 C 275.4737853999999 433.73541289999986 275.7146300999999 433.79562399999986 275.9594115999999 433.85183739999985 C 276.6818846999999 434.02038599999986 277.4123839999999 434.15283229999983 278.1468810999999 434.2491762999999 C 279.5797118999999 434.4578554999999 280.9724730999999 434.51406889999987 282.32907099999994 434.4297792999999 C 283.34051509999995 434.36956809999987 284.3318785999999 434.2290956999999 285.3031310999999 434.0163576999999 C 285.4275817999999 433.9922792999999 285.5480040999999 433.96420319999993 285.67242429999993 433.9360964999999 C 289.1923827999999 433.1534426999999 292.45141599999994 431.47573879999993 295.3291625999999 429.0475161999999 C 295.3331908999999 429.0475161999999 295.3371886999999 429.0475161999999 295.3412169999999 429.03945959999993 C 301.66268919999993 424.09069859999994 307.2777403999999 416.22396889999993 312.8446654999999 407.4702762999999 C 315.4053343999999 400.2096256999999 318.7486876999999 392.3228458999999 323.3201903999999 385.3873294999999 C 326.7558592999999 380.1736148999999 331.3795775999999 375.74258459999993 336.9544982999999 371.8453372999999 C 346.0935363999999 361.61059609999995 356.8219298999999 354.9078677999999 370.8375243999999 357.0310672999999 C 397.2551879999999 360.5028690999999 419.5668944999999 393.7195743999999 420.6666259999999 431.2268985999999 C 420.6893310999999 432.00512739999994 420.7027282999999 432.7788699999999 420.7070007999999 433.5480045999999 C 420.717865 435.5001221 420.4341125 437.4961548 420.3304443 439.3877869 z" stroke-linecap="round" />
</g>
		<g transform="matrix(1.1109897667269326 0 0 1.1109897667269326 0 -3.1689974917413224)"  >
<linearGradient id="SVGID_117_279288" gradientUnits="userSpaceOnUse" gradientTransform="matrix(1 0 0 1 174.46485895926116 350.93339592575165)"  x1="0" y1="0" x2="0" y2="134">
<stop offset="0%" style="stop-color:rgb(23,234,217);stop-opacity: 1"/>
<stop offset="100%" style="stop-color:rgb(96,120,234);stop-opacity: 1"/>
</linearGradient>
<path style="stroke: none; stroke-width: 1; stroke-dasharray: none; stroke-linecap: butt; stroke-dashoffset: 0; stroke-linejoin: miter; stroke-miterlimit: 4; fill: url(#SVGID_117_279288); fill-rule: nonzero; opacity: 1;"  paint-order="stroke"  transform=" translate(-297.6499942593635, -418.0976033848219)" d="M 336.9544983 371.8453369 C 333.07733160000004 376.1880798 329.4811401 381.164978 326.04544070000003 386.3786926 C 321.4739685 393.31423950000004 317.175354 400.65914910000004 312.84466560000004 407.47027590000005 C 311.83322150000004 407.5304871000001 310.84188850000004 407.67092900000006 309.87057500000003 407.88366700000006 C 309.7461243 407.90774540000007 309.6257325 407.93585210000003 309.50131230000005 407.96395870000003 C 305.9813538000001 408.74658200000005 302.72229010000007 410.4243164 299.8444825 412.85253900000004 C 299.84048470000005 412.85253900000004 299.83651740000005 412.85253900000004 299.83248910000003 412.86056510000003 C 293.51104740000005 417.80935660000006 287.89596570000003 425.6760863 282.3290711 434.42977900000005 C 277.99835210000003 441.24090570000004 273.70379640000004 448.58581540000006 269.12826540000003 455.5213623000001 C 265.692627 460.7350464000001 262.0963745 465.7119751000001 258.21920780000005 470.05468750000006 C 249.08018500000006 480.28942870000003 238.35177620000005 486.99218750000006 224.33622750000006 484.86898800000006 C 197.91853340000006 481.3971862000001 175.60681160000007 448.18045040000004 174.50708020000008 410.67315670000005 C 174.00537120000007 393.56707760000006 178.0029298000001 378.5240173 185.00672920000008 367.5507812000001 C 185.01075750000007 367.88790890000007 185.01477060000008 368.2210388000001 185.02677920000008 368.55819700000006 C 185.19535830000007 374.3458557000001 186.13052370000008 379.98095700000005 187.68780520000007 385.25085450000006 C 192.79312140000008 402.55758670000006 204.59318540000007 415.8868408000001 217.99870300000006 417.64883420000007 C 219.27099610000008 417.8173828000001 220.52328490000005 417.87359620000007 221.75143430000006 417.8294372000001 C 224.58905030000005 417.7732543000001 227.21798700000005 417.25949090000006 229.67431640000007 416.3604431000001 C 235.80715940000007 414.1369018000001 240.88439940000006 409.5493164000001 245.47595210000006 403.7817383000001 C 250.56927490000007 397.3840332000001 255.06852720000006 389.5373841000001 259.74844360000003 381.8713989000001 C 270.4367065 364.35592650000007 282.07623290000004 347.7636108000001 303.9785461 351.4521179000001 C 307.4463195 352.0381164000001 310.69735710000003 352.9452209000001 313.7477417 354.1372375000001 C 323.1115112 357.7856445 330.6290283 364.0830078 336.9544983 371.8453369 z M 420.6827087 441.7064819 C 420.7263183 440.90457150000003 420.98773189999997 435.3822326 420.7067566 433.5480041 C 419.56286620000003 444.1800842 414.0963745 452.7680358 407.4859009 456.64920040000004 C 404.2589722 458.54763790000004 400.5784607 459.37042230000003 396.6491089 458.85266110000003 C 382.4810486 457.34353630000004 373.7915039 443.16342160000005 365.4993897 425.53558350000003 C 359.3665467 427.75915530000003 354.2893677 432.35070800000005 349.697754 438.11428830000006 C 350.6850892 439.8682251000001 351.6644288 441.64224240000004 352.63970959999995 443.42431640000007 C 362.13195809999996 460.72702030000005 371.51177989999996 478.4311218000001 388.99114999999995 481.7985535000001 C 389.17172249999993 481.8386841000001 389.35232549999995 481.8707886000001 389.53295909999997 481.9028931000001 C 389.5369874 481.9028931000001 389.54101569999995 481.9028931000001 389.54498299999995 481.9069214000001 C 389.72561649999994 481.9390259000001 389.90625009999997 481.9671326000001 390.0868530999999 481.9952088000001 C 390.2714538999999 482.0273133000001 390.4600830999999 482.0513917000001 390.6487121999999 482.0794984000001 C 407.9555054 484.3552246 419.3183594 466.7879944 420.6827087 441.7064819 z" stroke-linecap="round" />
</g>
</g>
</g>
<g transform="matrix(1.9211538461538462 0 0 1.9211538461538462 643.357286380907 781.8554166359571)" id="text-logo"  >
<g style=""  paint-order="stroke"   >
		<g transform="matrix(1 0 0 1 5.684342e-14 0)" id="text-logo-path-0"  >
<path style="stroke: rgb(255,255,255); stroke-width: 0; stroke-dasharray: none; stroke-linecap: butt; stroke-dashoffset: 0; stroke-linejoin: miter; stroke-miterlimit: 4; fill: rgb(16,133,160); fill-rule: nonzero; opacity: 1;"  paint-order="stroke"  transform=" translate(-307.72, 29.665)" d="M 15.7 0 L 5.67 0 L 5.67 -41.24 Q 5.67 -45.09 7.08 -47.79 Q 8.49 -50.49 10.59 -52.15 Q 12.69 -53.81 15.16 -54.56 Q 17.63 -55.32 19.71 -55.32 L 19.71 -55.32 L 42.39 -55.32 Q 45.79 -55.32 48.49 -54.45 Q 51.19 -53.58 53.25 -52.13 Q 55.32 -50.69 56.76 -48.8 Q 58.21 -46.91 59.15 -44.84 Q 60.1 -42.78 60.52 -40.68 Q 60.95 -38.57 60.95 -36.72 L 60.95 -36.72 L 60.95 -32.17 Q 60.95 -28.74 60.1 -26.04 Q 59.25 -23.34 57.8 -21.27 Q 56.36 -19.21 54.47 -17.74 Q 52.58 -16.28 50.51 -15.35 Q 48.45 -14.43 46.35 -14 Q 44.24 -13.58 42.39 -13.58 L 42.39 -13.58 L 19.71 -13.58 L 19.71 -23.61 L 42.39 -23.61 Q 44.32 -23.76 45.88 -24.4 Q 47.45 -25.03 48.56 -26.11 Q 49.68 -27.19 50.3 -28.72 Q 50.92 -30.24 50.92 -32.17 L 50.92 -32.17 L 50.92 -36.72 Q 50.73 -38.61 50.11 -40.19 Q 49.49 -41.78 48.43 -42.89 Q 47.37 -44.01 45.86 -44.65 Q 44.36 -45.29 42.39 -45.29 L 42.39 -45.29 L 19.79 -45.29 Q 17.78 -45.29 16.74 -44.24 Q 15.7 -43.2 15.7 -41.24 L 15.7 -41.24 L 15.7 0 Z M 81.99 -18.55 L 81.99 -18.55 L 81.99 -41.7 L 92.02 -41.7 L 92.02 -18.55 Q 92.02 -16.59 92.7 -15.02 Q 93.37 -13.46 94.53 -12.34 Q 95.69 -11.23 97.25 -10.63 Q 98.81 -10.03 100.63 -10.03 L 100.63 -10.03 L 118.18 -10.03 L 118.18 -41.7 L 128.21 -41.7 L 128.21 -5.05 Q 128.21 -3.97 127.82 -3.05 Q 127.44 -2.12 126.76 -1.45 Q 126.09 -0.77 125.18 -0.39 Q 124.27 0 123.23 0 L 123.23 0 L 100.55 0 Q 98.7 0 96.6 -0.42 Q 94.49 -0.85 92.45 -1.79 Q 90.4 -2.74 88.49 -4.19 Q 86.59 -5.63 85.16 -7.7 Q 83.73 -9.76 82.86 -12.46 Q 81.99 -15.16 81.99 -18.55 Z M 161.64 0 L 151.61 0 L 151.61 -27.66 Q 151.61 -30.24 152.26 -32.29 Q 152.92 -34.33 154.02 -35.89 Q 155.12 -37.46 156.54 -38.55 Q 157.97 -39.65 159.53 -40.35 Q 161.1 -41.04 162.7 -41.37 Q 164.3 -41.7 165.69 -41.7 L 165.69 -41.7 L 188.33 -41.7 L 188.33 -31.67 L 165.76 -31.67 Q 163.72 -31.67 162.68 -30.65 Q 161.64 -29.63 161.64 -27.66 L 161.64 -27.66 L 161.64 0 Z M 218.71 0 L 208.68 0 L 208.68 -27.66 Q 208.68 -30.24 209.34 -32.29 Q 209.99 -34.33 211.09 -35.89 Q 212.19 -37.46 213.62 -38.55 Q 215.05 -39.65 216.61 -40.35 Q 218.17 -41.04 219.77 -41.37 Q 221.37 -41.7 222.76 -41.7 L 222.76 -41.7 L 245.41 -41.7 L 245.41 -31.67 L 222.84 -31.67 Q 220.8 -31.67 219.75 -30.65 Q 218.71 -29.63 218.71 -27.66 L 218.71 -27.66 L 218.71 0 Z M 265.22 -38.96 L 265.22 -38.96 Q 265.22 -43.47 266.82 -46.58 Q 268.42 -49.68 270.83 -51.63 Q 273.24 -53.58 276.06 -54.45 Q 278.87 -55.32 281.3 -55.32 L 281.3 -55.32 L 315.44 -55.32 L 315.44 -45.29 L 281.3 -45.29 Q 278.45 -45.29 276.85 -43.55 Q 275.25 -41.81 275.25 -38.96 L 275.25 -38.96 Q 275.25 -36.07 276.85 -34.39 Q 278.45 -32.71 281.3 -32.71 L 281.3 -32.71 L 304.37 -32.71 L 304.45 -32.71 Q 306.07 -32.67 307.88 -32.27 Q 309.7 -31.86 311.49 -31.01 Q 313.28 -30.17 314.9 -28.87 Q 316.52 -27.58 317.78 -25.77 Q 319.03 -23.95 319.76 -21.6 Q 320.5 -19.25 320.5 -16.28 L 320.5 -16.28 Q 320.5 -13.31 319.74 -10.94 Q 318.99 -8.56 317.76 -6.75 Q 316.52 -4.94 314.86 -3.66 Q 313.21 -2.39 311.43 -1.58 Q 309.66 -0.77 307.82 -0.39 Q 305.99 0 304.37 0 L 304.37 0 L 265.68 0 L 265.68 -10.03 L 304.37 -10.03 Q 307.27 -10.03 308.87 -11.73 Q 310.47 -13.42 310.47 -16.28 L 310.47 -16.28 Q 310.47 -17.67 310.04 -18.82 Q 309.62 -19.98 308.83 -20.83 Q 308.04 -21.68 306.9 -22.14 Q 305.76 -22.6 304.37 -22.6 L 304.37 -22.6 L 281.3 -22.6 Q 278.87 -22.6 276.06 -23.47 Q 273.24 -24.34 270.83 -26.27 Q 268.42 -28.2 266.82 -31.32 Q 265.22 -34.45 265.22 -38.96 Z M 341.08 -14.08 L 341.08 -14.08 L 341.08 -27.66 Q 341.08 -29.08 341.41 -30.67 Q 341.74 -32.25 342.43 -33.81 Q 343.13 -35.37 344.22 -36.8 Q 345.32 -38.23 346.89 -39.31 Q 348.45 -40.39 350.49 -41.04 Q 352.54 -41.7 355.12 -41.7 L 355.12 -41.7 L 382.32 -41.7 L 382.32 -31.67 L 355.12 -31.67 Q 353.15 -31.67 352.13 -30.67 Q 351.11 -29.66 351.11 -27.58 L 351.11 -27.58 L 351.11 -14.08 Q 351.11 -12.11 352.15 -11.07 Q 353.19 -10.03 355.2 -10.03 L 355.2 -10.03 L 382.32 -10.03 L 382.32 0 L 355.12 0 Q 353.04 0 350.57 -0.73 Q 348.1 -1.47 346 -3.14 Q 343.9 -4.82 342.49 -7.5 Q 341.08 -10.18 341.08 -14.08 Z M 414.63 0 L 404.6 0 L 404.6 -27.66 Q 404.6 -30.24 405.25 -32.29 Q 405.91 -34.33 407.01 -35.89 Q 408.11 -37.46 409.54 -38.55 Q 410.96 -39.65 412.53 -40.35 Q 414.09 -41.04 415.69 -41.37 Q 417.29 -41.7 418.68 -41.7 L 418.68 -41.7 L 441.32 -41.7 L 441.32 -31.67 L 418.76 -31.67 Q 416.71 -31.67 415.67 -30.65 Q 414.63 -29.63 414.63 -27.66 L 414.63 -27.66 L 414.63 0 Z M 472.32 0 L 462.29 0 L 462.29 -41.7 L 472.32 -41.7 L 472.32 0 Z M 472.32 -50.26 L 462.29 -50.26 L 462.29 -59.33 L 472.32 -59.33 L 472.32 -50.26 Z M 495.91 -14.08 L 495.91 -14.08 L 495.91 -59.33 L 505.94 -59.33 L 505.94 -14.08 Q 505.94 -12.23 507.1 -11.13 Q 508.26 -10.03 509.99 -10.03 L 509.99 -10.03 L 528.09 -10.03 Q 529.98 -10.03 531.04 -11.15 Q 532.1 -12.27 532.1 -14.08 L 532.1 -14.08 L 532.1 -27.66 Q 532.1 -29.55 530.98 -30.61 Q 529.86 -31.67 528.09 -31.67 L 528.09 -31.67 L 509.99 -31.67 L 509.99 -41.7 L 528.09 -41.7 Q 529.51 -41.7 531.09 -41.37 Q 532.68 -41.04 534.24 -40.35 Q 535.8 -39.65 537.23 -38.55 Q 538.66 -37.46 539.74 -35.89 Q 540.82 -34.33 541.47 -32.29 Q 542.13 -30.24 542.13 -27.66 L 542.13 -27.66 L 542.13 -14.08 Q 542.13 -12.65 541.8 -11.07 Q 541.47 -9.49 540.78 -7.93 Q 540.08 -6.36 538.98 -4.94 Q 537.88 -3.51 536.32 -2.41 Q 534.76 -1.31 532.71 -0.66 Q 530.67 0 528.09 0 L 528.09 0 L 509.99 0 Q 508.57 0 506.99 -0.33 Q 505.4 -0.66 503.84 -1.35 Q 502.28 -2.04 500.85 -3.14 Q 499.43 -4.24 498.33 -5.81 Q 497.23 -7.37 496.57 -9.43 Q 495.91 -11.5 495.91 -14.08 Z M 564.06 -13.81 L 564.06 -13.81 L 564.06 -27.89 Q 564.06 -29.97 564.79 -32.38 Q 565.53 -34.79 567.17 -36.86 Q 568.81 -38.92 571.45 -40.31 Q 574.09 -41.7 577.87 -41.7 L 577.87 -41.7 L 595.96 -41.7 Q 598.05 -41.7 600.46 -40.97 Q 602.87 -40.23 604.93 -38.59 Q 606.99 -36.95 608.38 -34.31 Q 609.77 -31.67 609.77 -27.89 L 609.77 -27.89 Q 609.77 -25.81 609.04 -23.4 Q 608.31 -20.98 606.67 -18.92 Q 605.03 -16.86 602.39 -15.47 Q 599.74 -14.08 595.96 -14.08 L 595.96 -14.08 L 577.87 -14.08 L 577.87 -23.61 L 595.96 -23.61 Q 598.01 -23.61 599.13 -24.86 Q 600.24 -26.11 600.24 -27.97 L 600.24 -27.97 Q 600.24 -29.93 598.99 -31.05 Q 597.74 -32.17 595.96 -32.17 L 595.96 -32.17 L 577.87 -32.17 Q 575.83 -32.17 574.71 -30.92 Q 573.59 -29.66 573.59 -27.81 L 573.59 -27.81 L 573.59 -13.81 Q 573.59 -11.8 574.84 -10.69 Q 576.1 -9.57 577.95 -9.57 L 577.95 -9.57 L 595.96 -9.57 L 595.96 0 L 577.87 0 Q 575.79 0 573.38 -0.73 Q 570.97 -1.47 568.9 -3.11 Q 566.84 -4.74 565.45 -7.39 Q 564.06 -10.03 564.06 -13.81 Z" stroke-linecap="round" />
</g>
</g>
</g>
<g transform="matrix(0.45926997051693813 0 0 0.45926997051693813 683.0770114253422 534.251252155979)" id="shape-d0a5e1cc-0609-4fab-9e75-0b88d667d9c8"  >
<g style=""  paint-order="stroke"   >
		<g transform="matrix(1 0 0 1 0 -1.421085e-14)" id="Layer_1"  >
<path style="stroke: none; stroke-width: 1; stroke-dasharray: none; stroke-linecap: butt; stroke-dashoffset: 0; stroke-linejoin: miter; stroke-miterlimit: 4; fill: rgb(64,52,120); fill-rule: nonzero; opacity: 1;"  paint-order="stroke"  transform=" translate(-94.81382164627907, -124.99998923213164)" d="M 83.80192 72.85534 C 83.74575999999999 72.5706 83.7033 72.27533 83.68881999999999 71.95954 C 83.68852 71.95835000000001 83.68852 71.95736000000001 83.68821999999999 71.95617 C 83.68821999999999 71.95617 83.68255999999998 71.92452 83.67472999999998 71.87987 C 83.57283999999999 71.31573999999999 83.40942999999999 70.38918 83.23738999999998 69.41093 C 73.74348999999998 63.85096999999999 79.40365999999997 61.89009999999999 84.86945999999998 61.89009999999999 C 90.33556999999998 61.89009999999999 95.99582999999997 63.85106999999999 86.50063999999998 69.41143 L 86.39536999999997 70.00662 C 86.36242999999997 70.26041 86.30071999999997 70.58167 86.23285999999997 70.92604 C 86.15536999999998 71.37121 86.08115999999997 71.80101 86.01448999999998 72.19519 C 85.93937999999999 72.72013 85.89522999999998 73.22046999999999 85.97946999999998 73.5572 C 86.48912999999997 75.83158999999999 89.43231999999998 76.97721 91.61274999999998 77.44967 C 89.15630999999998 77.55523 86.40221999999997 76.92979 84.87163999999997 75.12151 C 83.32300999999997 76.98693 80.45243999999997 77.52408 78.12616999999997 77.44967 C 79.40265999999997 77.18536 80.64015999999998 76.73612 81.70015999999997 76.09163 C 83.06385999999996 75.24484 83.83127999999996 74.22193999999999 83.80190999999996 72.85535999999999 Z M 187.30234 225.13153 C 183.25548999999998 241.08924 169.70104999999998 250.9923 153.2447 249.92098 C 146.56292 249.88794 128.51873999999998 249.78644999999997 121.60490999999999 249.75113 L 111.05824999999999 249.69448 C 109.42408999999999 249.6792 107.28225999999998 249.74885 105.16393999999998 249.15178 C 101.51692999999999 248.22353 99.33540999999998 245.78723 98.38195999999998 242.82033 C 95.75744999999998 246.93841 91.86328999999998 249.73625 85.96123999999998 249.5911 C 85.96133999999998 249.5908 83.67157999999998 249.60509000000002 83.67157999999998 249.60509000000002 C 78.81692999999997 249.45895000000002 73.14386999999998 250.17418 68.74113999999997 246.73978000000002 C 65.85301999999997 244.14999000000003 65.42371999999997 240.19641000000001 66.54215999999997 236.78761000000003 C 59.44258999999997 234.79470000000003 52.64294999999997 230.75192000000004 46.71559999999997 224.97170000000003 C 38.380819999999964 216.84249000000003 31.866809999999965 205.50350000000003 28.843559999999968 193.85972000000004 C 25.903649999999967 183.63510000000005 26.791019999999968 173.73432000000003 27.64981999999997 164.16055000000003 C 28.233199999999968 157.65210000000002 28.78403999999997 151.51670000000001 28.03159999999997 145.84323000000003 C 27.06723999999997 140.63806000000002 24.998029999999968 137.67116000000004 23.382819999999967 137.09651000000002 C 22.06604999999997 136.63298000000003 19.08565999999997 137.31081000000003 15.046449999999966 140.77617000000004 C 11.227099999999966 144.04309000000003 5.463949999999967 143.60020000000003 2.1986099999999666 139.79514000000003 C 0.6127699999999667 137.94738000000004 -0.15792000000003314 135.59322000000003 0.02700999999996645 133.16605000000004 C 0.21273999999996646 130.73887000000005 1.3318699999999664 128.52997000000005 3.1796399999999663 126.94572000000004 C 14.923419999999965 116.87112000000003 24.705149999999968 118.22519000000004 29.490439999999968 119.92691000000003 C 38.02602999999996 122.96286000000003 43.893159999999966 131.11033000000003 46.01078999999997 142.86681000000004 L 46.07110999999997 143.24779000000004 C 47.12753999999997 150.99761000000004 46.45446999999997 158.50455000000005 45.80362999999997 165.76385000000005 C 45.05753999999997 174.08038000000005 44.35509999999997 181.91433000000006 46.39414999999997 188.95139000000006 L 46.46716999999997 189.21490000000006 C 52.23299999999997 211.56309000000005 67.79285999999996 220.37480000000005 77.99236999999997 219.94311000000005 C 78.20428999999997 209.41103000000004 78.18652999999996 198.91239000000004 76.92551999999996 188.45551000000006 C 76.77341999999996 187.15412000000006 76.58679999999997 185.86195000000006 76.39700999999997 184.57048000000006 C 65.39494999999997 167.70576000000005 51.906589999999966 146.80689000000007 51.227859999999964 123.67878000000006 C 51.03974999999996 117.27907000000006 51.657259999999965 110.66744000000006 52.25412999999996 104.27328000000006 C 53.38873999999996 92.11508000000006 54.45568999999996 80.62697000000006 50.57591999999996 70.17526000000007 C 50.12250999999996 69.53940000000007 49.66820999999996 68.90572000000006 49.23086999999996 68.22679000000007 C 43.83520999999996 59.84676000000007 43.72725999999996 52.50968000000007 44.58684999999996 47.82915000000007 C 45.07815999999996 45.15672000000007 44.48366999999996 42.45015000000007 42.91290999999996 40.20633000000007 C 33.92410999999996 27.364840000000072 40.14522999999996 3.412160000000071 40.41429999999996 2.399380000000072 L 41.05164999999996 -0.000019999999928188572 L 43.47961999999996 0.5158900000000718 C 61.47547999999996 4.340790000000072 69.29355999999996 12.612870000000072 72.10806999999997 16.576680000000074 C 72.78510999999997 16.323490000000074 73.49785999999997 16.086170000000074 74.24077999999997 15.867100000000073 C 81.19449999999998 13.814560000000073 88.54507999999997 13.814560000000073 95.49800999999997 15.867100000000073 C 96.24250999999997 16.086160000000074 96.95367999999996 16.323490000000074 97.62991999999997 16.576680000000074 C 100.44442999999997 12.612080000000073 108.26249999999997 4.340800000000074 126.25915999999997 0.5158900000000735 L 128.68791999999996 -0.000019999999926523238 L 129.32447999999997 2.3993800000000736 C 129.59433999999996 3.412160000000074 135.81387999999995 27.364840000000072 126.82586999999997 40.20633000000007 C 125.25590999999997 42.448570000000075 124.66061999999997 45.15593000000007 125.15112999999997 47.829950000000075 C 125.92201999999996 52.022240000000075 125.90416999999997 58.352900000000076 122.01119999999996 65.65110000000007 C 124.15193999999995 80.14887000000007 129.43330999999995 95.42497000000007 140.44409999999996 105.44233000000007 C 149.60394999999997 113.88030000000006 158.94168999999997 122.44129000000007 165.95880999999997 132.86384000000007 C 173.97054999999997 144.85090000000008 181.17647999999997 157.49485000000007 184.95950999999997 171.41509000000008 C 189.64142999999996 188.8309500000001 191.46676999999997 207.39322000000007 187.30234999999996 225.13152000000008 Z M 49.72057 48.77289 C 49.03163 52.525569999999995 49.1483 58.45618999999999 53.62008 65.40039 C 61.985820000000004 78.38951 73.60737 82.31283 84.86937 85.08686 C 96.13137 82.31283 107.75292 78.38951 116.11866 65.40039 C 120.59044 58.456990000000005 120.70632 52.52557 120.01738 48.772890000000004 C 119.27288 44.71305 120.17136 40.607960000000006 122.54933 37.21246000000001 C 128.64664 28.502250000000007 126.10834 12.353360000000006 124.8384 6.202870000000008 C 106.05913999999999 10.927850000000008 101.08415 20.86196000000001 101.03334999999998 20.96594000000001 L 99.89516999999998 23.33200000000001 L 97.52672999999997 22.20175000000001 C 96.51870999999997 21.70965000000001 95.33925999999997 21.26279000000001 94.02009999999997 20.87387000000001 C 88.03311999999997 19.10548000000001 81.70404999999997 19.10706000000001 75.71865999999997 20.87387000000001 C 74.40029999999997 21.26279000000001 73.22004999999997 21.70965000000001 72.21202999999997 22.20175000000001 L 69.81183999999998 23.371680000000012 L 68.69587999999997 20.946090000000012 C 68.65539999999997 20.861160000000012 63.679609999999975 10.927840000000012 44.900349999999975 6.202860000000012 C 43.630409999999976 12.354140000000012 41.092909999999975 28.50224000000001 47.18941999999998 37.21245000000001 C 49.56817999999998 40.60954000000001 50.466659999999976 44.71542000000001 49.720569999999974 48.772880000000015 Z M 50.3603 221.23489 C 56.07593 226.80795 62.64788 230.53275000000002 69.43194 232.11283 C 71.71545 229.67861 74.72769 228.02977 77.83469 226.80527 C 77.84837999999999 226.26197000000002 77.86157999999999 225.71878 77.87507 225.17568 C 65.75437 225.39574 47.84134999999999 215.43682 41.411179999999995 190.51501 C 39.06813999999999 182.42548 39.81343999999999 174.11688999999998 40.60238999999999 165.32095999999999 C 41.22941999999999 158.32675999999998 41.87470999999999 151.11825 40.89923999999999 143.95737 L 40.87145999999999 143.78117 C 39.101479999999995 133.95659 34.437619999999995 127.22669 27.74105999999999 124.84476000000001 C 24.01933999999999 123.52164 16.32110999999999 122.54855 6.578279999999989 130.90714 C 5.789329999999989 131.58497 5.311509999999989 132.5279 5.232139999999989 133.56449 C 5.152769999999989 134.60108000000002 5.482159999999989 135.60592 6.159989999999989 136.39487 C 7.555339999999989 138.02039 10.020609999999989 138.20771 11.650109999999989 136.81078 C 16.65764999999999 132.5152 21.44611999999999 130.86587 25.13132999999999 132.17866999999998 C 28.996709999999993 133.55178999999998 31.93265999999999 138.23469999999998 33.18592999999999 145.02729999999997 C 34.03519999999999 151.40557999999996 33.45975999999999 157.82195999999996 32.85018999999999 164.61455999999998 C 32.03345999999999 173.72321 31.18973999999999 183.13029999999998 33.87883999999999 192.48342 C 36.68699999999999 203.29538 42.68746999999999 213.75176 50.36029999999999 221.23489 Z M 183.04546 193.22703 C 181.61955 179.66197000000003 178.08812 166.12301000000002 171.66648999999998 154.07960000000003 C 168.37695 147.94301000000002 164.89025999999998 141.94442000000004 161.00245999999999 136.28931000000003 C 153.24053999999998 124.47320000000003 142.49802999999997 115.77996000000003 132.62076 105.68650000000002 C 127.76997999999999 99.98049000000002 124.19380999999998 93.42045000000002 121.70105 86.59660000000002 C 119.94753999999999 81.82440000000003 118.64783 77.01985000000002 117.72435 72.08286000000003 C 108.42977 83.83795000000002 96.30649 87.67893000000002 85.4861 90.31029000000002 L 84.86937999999999 90.46030000000002 L 84.25265999999999 90.31029000000002 C 75.59840999999999 88.20606000000002 66.10955999999999 85.32279000000003 57.89789999999999 78.24535000000003 C 59.10433999999999 86.93294000000003 58.27381999999999 95.95230000000004 57.45212999999999 104.75825000000003 C 56.869539999999986 110.99604000000004 56.26711999999999 117.44576000000004 56.44569999999999 123.52640000000002 C 56.94206999999999 140.43478000000002 64.99924999999999 156.45052000000004 73.57204999999999 170.42771000000002 C 71.83698999999999 163.50167000000002 69.64762999999999 156.67643 67.10109999999999 149.90030000000002 C 83.36775999999999 172.18876 86.17602 201.85826000000003 82.27490999999999 228.55878 C 82.27501 228.55878 82.02002999999999 230.30475 82.02002999999999 230.30475 C 82.01903999999999 230.30495000000002 80.70951 230.51439000000002 80.70862 230.51449000000002 C 75.66537 232.32932000000002 70.15432 236.19361000000004 70.7749 240.67412000000002 C 71.00349 243.20349000000002 72.55242 243.83459000000002 74.94438 244.33998000000003 C 78.83586 244.97029000000003 83.76799 244.75906000000003 87.95353999999999 244.63802 C 97.29960999999999 243.09712000000002 98.20127 227.66535000000002 99.11403999999999 220.01088000000001 C 100.95703999999999 204.60282 106.89044999999999 190.30457 109.93056999999999 175.27343000000002 C 110.72765999999999 170.90632000000002 111.19256999999999 166.46589000000003 110.54678999999999 162.08370000000002 C 109.48926999999999 157.61023000000003 108.57649999999998 152.46499000000003 111.16002999999999 148.39502000000002 C 108.90796999999999 154.71417000000002 113.33917 160.17263000000003 113.74238 166.30209000000002 C 114.36614 172.69148 113.3733 178.99069000000003 111.99919 185.062 C 109.12188 196.90738000000002 105.62121 208.62150000000003 104.07366 220.61688 C 103.85856 222.7981 103.60011 225.25008 103.21556000000001 227.77895 C 105.08853 226.59562 107.22024 225.96938 109.14946 225.6637 C 115.13763 224.81988 120.90703 225.52976 126.70035 226.07097000000002 C 125.74918 224.40804000000003 124.91112 222.69481000000002 124.12415 220.87760000000003 C 112.48949999999999 193.40678000000003 135.4938 169.87189000000004 163.32902 174.41303000000002 C 138.1185 173.48111000000003 117.62959000000001 193.83182000000002 128.88117 218.84173 C 130.03463 221.51545000000002 131.56432 224.18650000000002 133.18121 226.47695000000002 C 139.10707 226.66357000000002 144.9751 226.31047 151.30813 225.77223 C 145.34397 230.09082 137.65884 231.39053 130.43297 230.85051 C 123.60356000000002 230.50147 116.53951 229.28382000000002 109.92322000000001 230.28568 C 107.42153000000002 230.75099 105.26154000000001 231.43567000000002 104.11016000000001 233.62275000000002 C 100.79661 240.66626000000002 103.02773 245.37606000000002 111.05833000000001 244.66747000000004 C 111.05823000000001 244.66777000000005 121.60490000000001 244.61102000000002 121.60490000000001 244.61102000000002 C 130.06459 244.56280000000004 147.60427 244.47311000000002 155.88161000000002 244.42668000000003 C 183.32534 243.70470000000003 185.20525000000004 214.45835000000002 183.04546000000002 193.22701000000004 Z" stroke-linecap="round" />
</g>
</g>
</g>
<g transform="matrix(0.39224689548379515 0 0 0.39224689548379515 982.6300960615824 402.35658552631594)" id="shape-4ea79269-18a3-4bca-923c-0dea5217d689"  >
<g style=""  paint-order="stroke"   >
		<g transform="matrix(1 0 0 1 0 0)" id="Layer_1"  >
<path style="stroke: none; stroke-width: 1; stroke-dasharray: none; stroke-linecap: butt; stroke-dashoffset: 0; stroke-linejoin: miter; stroke-miterlimit: 4; fill: rgb(92,224,230); fill-rule: nonzero; opacity: 1;"  paint-order="stroke"  transform=" translate(-147.4430765665156, -149.66167965851653)" d="M 245.9 204.2 C 247.5 204.5 248.5 206 248.1 207.6 C 248.1 207.6 248.1 207.6 248.1 207.6 C 247.4 211.2 246.7 215 246.1 219 C 245.9 220.4 244.7 221.5 243.2 221.5 C 243.1 221.5 242.89999999999998 221.5 242.79999999999998 221.5 C 241.2 221.3 240.1 219.8 240.39999999999998 218.2 C 240.39999999999998 218.2 240.39999999999998 218.2 240.39999999999998 218.2 C 240.99999999999997 214 241.7 210.2 242.49999999999997 206.5 C 242.8 204.9 244.3 203.9 245.9 204.2 C 245.9 204.2 245.9 204.2 245.9 204.2 z M 252 85.4 C 251.7 86 251.2 87.7 252.7 92.10000000000001 C 255.7 101.30000000000001 257.9 111.10000000000001 259.59999999999997 122 C 260.99999999999994 131.4 262.49999999999994 142.1 262.4 152.3 C 262.4 154.70000000000002 262.09999999999997 157.10000000000002 261.29999999999995 159.4 C 260.09999999999997 163.20000000000002 258.99999999999994 166.6 257.99999999999994 169.8 C 257.99999999999994 170 257.8999999999999 170.10000000000002 257.8999999999999 170.3 C 255.29999999999993 178.60000000000002 253.19999999999993 186 250.99999999999991 195.5 C 250.5999999999999 197.1 249.0999999999999 198 247.49999999999991 197.7 C 245.89999999999992 197.29999999999998 244.99999999999991 195.79999999999998 245.29999999999993 194.2 L 245.29999999999993 194.2 C 247.49999999999991 184.7 249.59999999999994 177.39999999999998 252.09999999999994 169.2 C 247.99999999999994 155.2 243.29999999999993 141.89999999999998 231.59999999999994 132.1 C 227.49999999999994 128.7 222.79999999999993 125.8 218.19999999999993 123 C 210.99999999999994 118.6 203.59999999999994 114 198.09999999999994 107.3 C 195.39999999999995 104 193.19999999999993 100.3 191.69999999999993 96.39999999999999 C 189.89999999999992 114.19999999999999 188.49999999999994 123.39999999999999 186.49999999999994 126.19999999999999 C 186.49999999999994 126.29999999999998 186.39999999999995 126.29999999999998 186.39999999999995 126.39999999999999 C 186.29999999999995 126.6 171.99999999999994 143.29999999999998 156.59999999999994 160.79999999999998 C 155.49999999999994 161.99999999999997 153.69999999999993 162.1 152.49999999999994 161.1 C 151.29999999999995 160.1 151.19999999999993 158.2 152.19999999999993 157 L 152.19999999999993 157 C 166.79999999999993 140.4 180.49999999999994 124.4 181.89999999999992 122.8 C 183.5999999999999 119.89999999999999 185.49999999999991 100.8 186.49999999999991 91.6 C 187.1999999999999 84.69999999999999 187.5999999999999 80.69999999999999 187.99999999999991 78.89999999999999 L 188.29999999999993 77.6 C 189.49999999999991 72.39999999999999 190.59999999999994 66.89999999999999 192.29999999999993 61.599999999999994 C 195.69999999999993 51.199999999999996 200.39999999999992 41.199999999999996 206.19999999999993 31.899999999999995 C 207.29999999999993 30.099999999999994 208.49999999999994 28.299999999999994 209.69999999999993 26.599999999999994 C 214.29999999999993 19.799999999999994 218.59999999999994 13.399999999999995 219.89999999999992 5.599999999999994 C 220.39999999999992 2.399999999999994 221.79999999999993 0.49999999999999467 224.0999999999999 0.09999999999999432 C 225.1999999999999 -0.1000000000000057 226.2999999999999 0.09999999999999432 227.2999999999999 0.5999999999999943 C 231.5999999999999 2.399999999999994 234.9999999999999 6.599999999999994 236.5999999999999 11.899999999999995 C 237.6999999999999 15.699999999999996 237.89999999999992 19.599999999999994 237.89999999999992 23.099999999999994 L 237.99999999999991 23.099999999999994 C 242.1999999999999 24.499999999999993 246.49999999999991 25.999999999999993 250.5999999999999 27.299999999999994 C 252.0999999999999 27.799999999999994 253.6999999999999 28.399999999999995 255.1999999999999 29.499999999999993 C 257.5999999999999 31.299999999999994 258.7999999999999 33.89999999999999 259.7999999999999 36.199999999999996 C 260.0999999999999 36.9 260.3999999999999 37.599999999999994 260.6999999999999 38.199999999999996 C 262.2999999999999 39.9 271.9999999999999 43.099999999999994 277.7999999999999 44.99999999999999 C 282.8999999999999 46.699999999999996 287.6999999999999 48.29999999999999 290.3999999999999 49.599999999999994 C 291.3999999999999 50.099999999999994 292.8999999999999 50.99999999999999 293.8999999999999 52.49999999999999 C 296.19999999999993 56.199999999999996 293.69999999999993 60.599999999999994 292.8999999999999 62.099999999999994 C 289.3999999999999 68.1 285.5999999999999 73.89999999999999 281.3999999999999 79.5 C 280.7999999999999 80.4 279.99999999999994 81.2 279.19999999999993 81.9 C 277.5999999999999 83.10000000000001 274.69999999999993 83.30000000000001 266.69999999999993 83.60000000000001 C 261.79999999999995 83.80000000000001 255.79999999999993 84.00000000000001 253.29999999999993 84.80000000000001 C 252.5 84.7 252.1 85 252 85.4 z M 275.5 76.9 C 275.8 76.60000000000001 276.2 76.2 276.5 75.80000000000001 C 280.5 70.4 284.2 64.80000000000001 287.6 59.000000000000014 C 289.1 56.40000000000001 288.8 55.600000000000016 288.70000000000005 55.40000000000001 C 288.6 55.20000000000001 288.30000000000007 55.000000000000014 287.50000000000006 54.600000000000016 C 285.20000000000005 53.500000000000014 280.6000000000001 51.90000000000001 275.70000000000005 50.30000000000002 C 262.80000000000007 46.00000000000002 257.00000000000006 43.90000000000002 255.30000000000004 40.80000000000002 C 254.90000000000003 40.00000000000002 254.50000000000003 39.20000000000002 254.10000000000005 38.40000000000002 C 253.30000000000004 36.60000000000002 252.50000000000006 34.90000000000002 251.30000000000004 34.00000000000002 C 250.60000000000005 33.40000000000002 249.50000000000003 33.10000000000002 248.30000000000004 32.700000000000024 C 244.20000000000005 31.300000000000026 239.90000000000003 29.900000000000023 235.70000000000005 28.500000000000025 L 233.70000000000005 27.800000000000026 C 232.50000000000006 27.400000000000027 231.70000000000005 26.300000000000026 231.70000000000005 25.000000000000025 C 231.70000000000005 21.300000000000026 231.80000000000004 17.200000000000024 230.70000000000005 13.400000000000025 C 229.70000000000005 10.100000000000026 227.80000000000004 7.500000000000025 225.40000000000003 6.100000000000025 C 225.40000000000003 6.200000000000025 225.40000000000003 6.300000000000026 225.30000000000004 6.400000000000025 C 223.90000000000003 15.400000000000025 219.00000000000003 22.700000000000024 214.20000000000005 29.700000000000024 C 213.10000000000005 31.400000000000023 211.90000000000003 33.10000000000002 210.80000000000004 34.90000000000003 C 205.20000000000005 43.800000000000026 200.70000000000005 53.300000000000026 197.50000000000003 63.300000000000026 C 196.30000000000004 67.10000000000002 195.30000000000004 71.00000000000003 194.40000000000003 75.00000000000003 C 194.40000000000003 75.20000000000003 194.40000000000003 75.40000000000003 194.40000000000003 75.60000000000002 C 193.20000000000005 85.50000000000003 196.10000000000002 96.00000000000003 202.40000000000003 103.50000000000003 C 207.40000000000003 109.50000000000003 214.00000000000003 113.60000000000002 221.10000000000002 118.00000000000003 C 225.8 120.90000000000003 230.70000000000002 123.90000000000003 235.10000000000002 127.60000000000002 C 245.70000000000002 136.50000000000003 251.00000000000003 147.60000000000002 255.00000000000003 159.40000000000003 C 255.20000000000002 158.80000000000004 255.40000000000003 158.20000000000005 255.60000000000002 157.60000000000002 C 256.1 155.90000000000003 256.40000000000003 154.10000000000002 256.40000000000003 152.20000000000002 C 256.50000000000006 142.4 255.00000000000003 132.00000000000003 253.60000000000002 122.80000000000001 C 252.00000000000003 112.20000000000002 249.90000000000003 102.70000000000002 247.00000000000003 93.80000000000001 C 245.40000000000003 89.00000000000001 245.30000000000004 85.30000000000001 246.60000000000002 82.70000000000002 C 247.50000000000003 80.90000000000002 249.10000000000002 79.60000000000002 250.90000000000003 79.00000000000001 C 254.20000000000005 77.90000000000002 260.1 77.70000000000002 265.90000000000003 77.50000000000001 C 269.5 77.5 274.2 77.3 275.5 76.9 L 275.5 76.9 z M 0.4 276.1 C 4.9 284.1 16.099999999999998 289.40000000000003 28.7 290.20000000000005 C 27.3 291.00000000000006 25.8 291.70000000000005 24.4 292.30000000000007 C 22.9 292.9000000000001 22.2 294.6000000000001 22.799999999999997 296.00000000000006 C 23.099999999999998 296.90000000000003 23.9 297.50000000000006 24.799999999999997 297.70000000000005 C 29.299999999999997 298.80000000000007 33.9 299.30000000000007 38.5 299.30000000000007 C 44 299.30000000000007 49.6 298.6000000000001 55 297.30000000000007 C 64.7 295.1000000000001 73.7 290.30000000000007 80.9 283.50000000000006 C 82.10000000000001 282.40000000000003 82.10000000000001 280.6000000000001 81 279.40000000000003 C 79.9 278.20000000000005 78.1 278.20000000000005 76.9 279.3 L 76.9 279.3 C 70.4 285.5 62.400000000000006 289.8 53.60000000000001 291.7 C 47.400000000000006 293.2 40.900000000000006 293.7 34.50000000000001 293.4 C 36.400000000000006 292.09999999999997 38.10000000000001 290.7 39.60000000000001 289.09999999999997 C 40.70000000000001 287.99999999999994 40.70000000000001 286.09999999999997 39.60000000000001 284.99999999999994 C 39.00000000000001 284.3999999999999 38.10000000000001 284.09999999999997 37.20000000000001 284.19999999999993 C 28.50000000000001 285.19999999999993 19.90000000000001 283.69999999999993 13.600000000000009 280.3999999999999 C 19.20000000000001 280.8999999999999 24.90000000000001 280.3999999999999 29.500000000000007 279.8999999999999 C 37.900000000000006 278.8999999999999 44.60000000000001 277.69999999999993 50.60000000000001 275.8999999999999 C 76 268.3999999999999 94.70000000000002 252.99999999999991 103.20000000000002 232.49999999999991 C 104.00000000000001 230.6999999999999 104.50000000000001 228.89999999999992 105.10000000000002 227.0999999999999 C 105.60000000000002 225.49999999999991 106.10000000000002 223.99999999999991 106.60000000000002 222.5999999999999 C 109.20000000000002 216.1999999999999 112.90000000000002 210.0999999999999 118.10000000000002 204.0999999999999 C 126.50000000000003 194.2999999999999 134.90000000000003 184.5999999999999 143.00000000000003 175.1999999999999 C 144.00000000000003 173.99999999999991 143.90000000000003 172.1999999999999 142.70000000000002 171.0999999999999 C 141.5 169.99999999999991 139.70000000000002 170.1999999999999 138.60000000000002 171.39999999999992 C 130.40000000000003 180.79999999999993 122.00000000000003 190.49999999999991 113.70000000000002 200.29999999999993 C 108.10000000000002 206.79999999999993 104.00000000000001 213.39999999999992 101.20000000000002 220.39999999999992 C 100.60000000000002 221.99999999999991 100.00000000000001 223.69999999999993 99.50000000000001 225.29999999999993 C 98.90000000000002 226.99999999999991 98.40000000000002 228.69999999999993 97.80000000000001 230.19999999999993 C 90 249.2 72.6 263.5 49 270.4 C 43.4 272.09999999999997 37 273.29999999999995 28.9 274.2 C 21.5 275 10.799999999999997 275.7 4.399999999999999 272.2 C 2.9999999999999987 271.4 1.2999999999999985 271.9 0.49999999999999867 273.2 C -0.1 274.1 -0.1 275.2 0.4 276.1 z M 73.5 294.8 C 74.3 296.2 76 296.7 77.4 295.90000000000003 C 77.4 295.90000000000003 77.4 295.90000000000003 77.4 295.90000000000003 C 85.60000000000001 291.3 95.2 282.20000000000005 100.60000000000001 269.40000000000003 C 107.30000000000001 286.50000000000006 118.60000000000001 297.50000000000006 119.20000000000002 298.1 C 119.70000000000002 298.6 120.50000000000001 298.90000000000003 121.20000000000002 298.90000000000003 L 214 298.90000000000003 C 215.6 298.90000000000003 216.9 297.6 216.9 296.00000000000006 C 216.9 296.00000000000006 216.9 296.00000000000006 216.9 295.90000000000003 C 216.9 294.90000000000003 216.3 272.40000000000003 201 271.00000000000006 C 198.1 270.70000000000005 195.2 270.30000000000007 192.3 269.6000000000001 C 198.9 267.7000000000001 206.8 263.9000000000001 211.70000000000002 256.4000000000001 C 214.50000000000003 252.2000000000001 216.10000000000002 247.2000000000001 216.4 241.7000000000001 C 217.1 246.8000000000001 217.1 252.0000000000001 217.1 257.4000000000001 C 217.1 259.30000000000007 217.1 261.1000000000001 217.1 263.0000000000001 C 217.2 268.3000000000001 217.7 275.2000000000001 220.4 281.5000000000001 C 221.6 284.2000000000001 223 286.8000000000001 224.5 289.3000000000001 L 224.6 289.5000000000001 C 225.2 290.5000000000001 229.2 297.2000000000001 229.29999999999998 297.5000000000001 C 229.79999999999998 298.4000000000001 230.79999999999998 298.9000000000001 231.79999999999998 298.9000000000001 L 262.7 298.9000000000001 C 264.3 298.9000000000001 265.59999999999997 297.6000000000001 265.59999999999997 296.0000000000001 C 265.59999999999997 295.8000000000001 265.59999999999997 295.60000000000014 265.59999999999997 295.5000000000001 C 265.29999999999995 293.60000000000014 264.99999999999994 291.8000000000001 264.59999999999997 289.9000000000001 C 263.9 285.6000000000001 262.9 281.2000000000001 259.29999999999995 278.30000000000007 C 258.19999999999993 277.4000000000001 255.29999999999995 276.20000000000005 248.99999999999994 273.50000000000006 C 246.39999999999995 272.40000000000003 242.89999999999995 270.90000000000003 241.39999999999995 270.20000000000005 C 241.39999999999995 270.00000000000006 241.39999999999995 269.70000000000005 241.39999999999995 269.6 C 241.19999999999996 266 241.59999999999994 262.40000000000003 241.99999999999994 258.5 C 242.09999999999994 257.3 242.19999999999993 256.2 242.29999999999995 255 L 242.39999999999995 253.7 C 242.99999999999994 246.6 243.69999999999996 239.29999999999998 244.49999999999994 232.2 C 244.69999999999993 230.6 243.49999999999994 229.2 241.89999999999995 229 C 240.29999999999995 228.8 238.89999999999995 230 238.69999999999996 231.6 C 237.89999999999995 238.9 237.19999999999996 246.2 236.59999999999997 253.29999999999998 L 236.49999999999997 254.6 C 236.39999999999998 255.7 236.29999999999998 256.9 236.19999999999996 258 C 235.79999999999995 261.9 235.39999999999995 265.9 235.59999999999997 269.9 C 235.59999999999997 270.79999999999995 235.69999999999996 272.29999999999995 236.49999999999997 273.59999999999997 C 237.19999999999996 274.79999999999995 237.99999999999997 275.2 246.69999999999996 278.9 C 249.89999999999995 280.29999999999995 254.89999999999995 282.29999999999995 255.69999999999996 282.9 C 257.69999999999993 284.5 258.29999999999995 287.59999999999997 258.9 290.9 C 259 291.59999999999997 259.2 292.4 259.29999999999995 293.09999999999997 L 233.49999999999994 293.09999999999997 C 232.09999999999994 290.79999999999995 229.99999999999994 287.29999999999995 229.69999999999993 286.59999999999997 L 229.59999999999994 286.4 C 228.19999999999993 284 226.99999999999994 281.59999999999997 225.79999999999993 279.2 C 223.49999999999991 273.8 223.09999999999994 267.7 222.99999999999991 262.9 C 222.99999999999991 261.09999999999997 222.99999999999991 259.2 222.99999999999991 257.4 C 222.99999999999991 251.29999999999998 222.99999999999991 245.09999999999997 221.89999999999992 238.89999999999998 C 220.69999999999993 231.7 216.99999999999991 223.99999999999997 211.69999999999993 217.29999999999998 L 211.29999999999993 216.79999999999998 C 199.69999999999993 202.6 182.19999999999993 195.7 166.69999999999993 199.29999999999998 C 165.09999999999994 199.7 164.19999999999993 201.2 164.49999999999994 202.79999999999998 C 164.89999999999995 204.39999999999998 166.39999999999995 205.29999999999998 167.99999999999994 204.99999999999997 L 167.99999999999994 204.99999999999997 C 181.19999999999993 201.89999999999998 196.29999999999995 207.89999999999998 206.49999999999994 220.19999999999996 C 211.99999999999994 234.29999999999995 212.19999999999993 245.49999999999997 206.99999999999994 253.29999999999995 C 199.09999999999994 265.29999999999995 180.99999999999994 265.9 180.79999999999995 265.9 C 179.19999999999996 265.9 177.89999999999995 267.2 177.99999999999994 268.79999999999995 C 177.99999999999994 269.79999999999995 178.59999999999994 270.79999999999995 179.49999999999994 271.29999999999995 C 179.79999999999995 271.49999999999994 187.19999999999993 275.59999999999997 200.59999999999994 276.9 C 208.09999999999994 277.59999999999997 210.39999999999995 288 210.99999999999994 293.29999999999995 L 122.59999999999994 293.29999999999995 C 119.49999999999994 289.99999999999994 108.09999999999994 277.19999999999993 103.59999999999994 259.59999999999997 C 103.29999999999994 258.29999999999995 102.09999999999994 257.4 100.79999999999994 257.4 C 99.49999999999994 257.4 98.29999999999994 258.29999999999995 97.99999999999994 259.59999999999997 C 94.2 275 83 286.1 74.6 290.9 C 73.2 291.6 72.7 293.4 73.5 294.8 C 73.5 294.8 73.5 294.8 73.5 294.8 L 73.5 294.8 z" stroke-linecap="round" />
</g>
</g>
</g>
</svg>